<svg xmlns="http://www.w3.org/2000/svg" xmlns:xlink="http://www.w3.org/1999/xlink" width="500" zoomAndPan="magnify" viewBox="0 0 375 374.999991" height="500" preserveAspectRatio="xMidYMid meet" version="1.0"><defs><g/><clipPath id="ee44f5ca8b"><path d="M 161 138 L 302 138 L 302 243 L 161 243 Z M 161 138 " clip-rule="nonzero"/></clipPath><clipPath id="5c7851f81a"><path d="M 154.386719 153.5 L 290.6875 120.464844 L 314.539062 218.863281 L 178.234375 251.902344 Z M 154.386719 153.5 " clip-rule="nonzero"/></clipPath><clipPath id="063ec44360"><path d="M 154.386719 153.5 L 290.6875 120.464844 L 314.539062 218.863281 L 178.234375 251.902344 Z M 154.386719 153.5 " clip-rule="nonzero"/></clipPath><clipPath id="65ff814d64"><path d="M 6.621094 174.511719 L 32.121094 174.511719 L 32.121094 200 L 6.621094 200 Z M 6.621094 174.511719 " clip-rule="nonzero"/></clipPath></defs><g clip-path="url(#ee44f5ca8b)"><g clip-path="url(#5c7851f81a)"><g clip-path="url(#063ec44360)"><path fill="#9cff1e" d="M 299.316406 166.746094 C 299.824219 168.679688 300.898438 169.835938 301.777344 170.488281 C 300.449219 172.285156 299.113281 174.074219 297.769531 175.859375 C 296.308594 174.757812 293.929688 172.421875 292.890625 168.488281 C 290.425781 171.789062 287.929688 175.066406 285.40625 178.320312 C 282.519531 182.035156 279.597656 185.722656 276.628906 189.375 C 273.660156 193.03125 270.644531 196.648438 267.574219 200.226562 C 264.503906 203.804688 261.375 207.339844 258.171875 210.8125 C 254.964844 214.289062 251.683594 217.703125 248.285156 221.027344 C 244.890625 224.347656 241.378906 227.582031 237.660156 230.636719 C 233.929688 233.679688 230.023438 236.585938 225.574219 238.972656 C 223.34375 240.152344 220.960938 241.207031 218.277344 241.859375 C 216.929688 242.171875 215.496094 242.382812 213.980469 242.363281 C 213.222656 242.351562 212.445312 242.273438 211.664062 242.132812 C 210.878906 241.976562 210.097656 241.75 209.335938 241.441406 C 208.582031 241.121094 207.851562 240.726562 207.179688 240.265625 C 206.566406 239.796875 205.945312 239.359375 205.402344 238.792969 C 204.828125 238.273438 204.347656 237.648438 203.867188 237.035156 C 203.652344 236.710938 203.441406 236.382812 203.230469 236.054688 C 203.121094 235.894531 203.03125 235.722656 202.945312 235.550781 L 202.6875 235.035156 C 202.023438 233.660156 201.574219 232.214844 201.351562 230.8125 L 201.257812 230.28125 L 201.199219 229.761719 C 201.167969 229.414062 201.125 229.066406 201.097656 228.71875 C 201.078125 228.042969 201.027344 227.347656 201.0625 226.6875 C 201.121094 224.011719 201.535156 221.480469 202.101562 219.050781 C 202.671875 216.621094 203.390625 214.277344 204.183594 211.988281 C 205.777344 207.40625 207.652344 203.019531 209.605469 198.707031 C 211.558594 194.394531 213.597656 190.15625 215.617188 185.9375 C 217.640625 181.722656 219.644531 177.523438 221.507812 173.304688 C 223.359375 169.089844 225.101562 164.84375 226.359375 160.597656 C 226.984375 158.476562 227.472656 156.355469 227.710938 154.316406 L 227.773438 153.5625 L 227.804688 153.1875 L 227.8125 152.820312 C 227.816406 152.578125 227.828125 152.332031 227.824219 152.09375 L 227.792969 151.390625 C 227.726562 150.476562 227.574219 149.621094 227.3125 148.898438 C 227.039062 148.1875 226.671875 147.605469 226.191406 147.113281 C 226.070312 146.992188 225.964844 146.855469 225.808594 146.757812 L 225.597656 146.589844 C 225.527344 146.535156 225.46875 146.472656 225.371094 146.421875 C 225.195312 146.3125 225.019531 146.203125 224.847656 146.089844 L 224.296875 145.8125 C 223.546875 145.46875 222.738281 145.230469 221.871094 145.09375 C 221.007812 144.957031 220.070312 144.960938 219.117188 145.027344 C 217.203125 145.171875 215.183594 145.714844 213.191406 146.433594 C 211.195312 147.179688 209.210938 148.121094 207.265625 149.175781 C 203.375 151.308594 199.625 153.886719 196 156.652344 C 192.375 159.421875 188.867188 162.394531 185.453125 165.488281 C 182.039062 168.585938 178.714844 171.792969 175.476562 175.09375 C 173.855469 176.742188 172.257812 178.410156 170.683594 180.101562 C 169.894531 180.945312 169.113281 181.796875 168.335938 182.652344 C 167.570312 183.5 166.785156 184.375 166.0625 185.210938 L 161.019531 180.875 C 161.828125 179.941406 162.609375 179.070312 163.410156 178.1875 C 164.207031 177.304688 165.007812 176.433594 165.816406 175.566406 C 167.433594 173.832031 169.070312 172.121094 170.734375 170.433594 C 174.054688 167.050781 177.464844 163.753906 180.988281 160.5625 C 184.511719 157.367188 188.148438 154.28125 191.960938 151.367188 C 195.78125 148.457031 199.761719 145.707031 204.082031 143.335938 C 206.25 142.160156 208.503906 141.085938 210.894531 140.195312 C 213.296875 139.328125 215.835938 138.617188 218.59375 138.398438 C 219.972656 138.300781 221.394531 138.292969 222.84375 138.515625 C 224.289062 138.734375 225.746094 139.152344 227.121094 139.792969 C 227.460938 139.960938 227.800781 140.128906 228.136719 140.308594 L 229.097656 140.914062 C 229.257812 141.007812 229.417969 141.140625 229.578125 141.261719 L 230.058594 141.640625 C 230.382812 141.878906 230.667969 142.179688 230.957031 142.472656 C 232.113281 143.652344 232.996094 145.105469 233.546875 146.585938 C 234.085938 148.066406 234.328125 149.539062 234.429688 150.953125 L 234.476562 152.007812 C 234.476562 152.351562 234.464844 152.691406 234.457031 153.035156 L 234.445312 153.546875 L 234.40625 154.042969 L 234.320312 155.039062 C 234.019531 157.652344 233.433594 160.105469 232.738281 162.472656 C 231.335938 167.207031 229.5 171.636719 227.589844 175.988281 C 225.671875 180.335938 223.640625 184.585938 221.617188 188.8125 C 219.59375 193.035156 217.570312 197.234375 215.664062 201.449219 C 213.753906 205.664062 211.949219 209.898438 210.46875 214.160156 C 209.730469 216.292969 209.078125 218.433594 208.582031 220.558594 C 208.078125 222.683594 207.75 224.804688 207.710938 226.808594 C 207.679688 227.316406 207.726562 227.792969 207.734375 228.285156 C 207.753906 228.523438 207.785156 228.753906 207.804688 228.988281 L 207.839844 229.339844 L 207.90625 229.675781 C 208.042969 230.585938 208.316406 231.394531 208.664062 232.121094 L 208.800781 232.390625 C 208.839844 232.484375 208.886719 232.574219 208.945312 232.652344 C 209.054688 232.816406 209.160156 232.980469 209.261719 233.148438 C 209.515625 233.441406 209.734375 233.765625 210.035156 234.023438 C 210.292969 234.3125 210.652344 234.535156 210.957031 234.792969 C 211.25 234.992188 211.554688 235.152344 211.875 235.292969 C 212.203125 235.421875 212.542969 235.523438 212.910156 235.601562 C 213.28125 235.660156 213.667969 235.707031 214.082031 235.710938 C 214.90625 235.722656 215.8125 235.605469 216.742188 235.386719 C 218.609375 234.9375 220.558594 234.109375 222.457031 233.097656 C 226.265625 231.058594 229.929688 228.371094 233.441406 225.496094 C 236.957031 222.605469 240.34375 219.496094 243.636719 216.273438 C 246.933594 213.050781 250.140625 209.710938 253.28125 206.304688 C 256.421875 202.898438 259.5 199.421875 262.527344 195.894531 C 265.554688 192.367188 268.53125 188.792969 271.46875 185.183594 C 274.402344 181.570312 277.296875 177.921875 280.152344 174.242188 C 282.652344 171.019531 285.121094 167.773438 287.5625 164.507812 C 283.507812 164.601562 280.621094 162.925781 279.164062 161.828125 C 280.460938 160.105469 281.75 158.378906 283.03125 156.644531 C 283.910156 157.292969 285.324219 157.992188 287.308594 157.925781 C 289.285156 157.863281 291.855469 157.023438 294.960938 154.605469 L 300.179688 158.28125 C 298.847656 162.105469 298.804688 164.800781 299.316406 166.746094 Z M 299.316406 166.746094 " fill-opacity="1" fill-rule="nonzero"/></g></g></g><g clip-path="url(#65ff814d64)"><path fill="#9cff1e" d="M 32.019531 183.753906 L 32.019531 190.722656 C 23.574219 193.195312 22.3125 197.574219 22.3125 199.964844 L 15.046875 199.964844 C 15.046875 197.96875 15.507812 194.355469 18.285156 190.871094 L 6.628906 190.871094 L 6.628906 183.605469 L 18.285156 183.605469 C 15.507812 180.121094 15.046875 176.507812 15.046875 174.511719 L 22.3125 174.511719 C 22.3125 176.902344 23.574219 181.28125 32.019531 183.753906 Z M 32.019531 183.753906 " fill-opacity="1" fill-rule="nonzero"/></g><g fill="#000000" fill-opacity="1"><g transform="translate(49.521455, 198.928995)"><g><path d="M 0.695312 0 L 22.992188 0 C 28.53125 0 30.933594 -3.203125 30.933594 -7.210938 C 30.933594 -9.859375 29.402344 -12.089844 27.277344 -13.621094 C 28.460938 -15.015625 29.191406 -16.617188 29.191406 -18.183594 C 29.191406 -21.878906 27.484375 -24.386719 21.945312 -24.386719 L 0.695312 -24.386719 Z M 9.753906 -15.816406 L 9.753906 -18.464844 L 18.113281 -18.464844 C 19.019531 -18.464844 20.136719 -18.464844 20.136719 -17.140625 C 20.136719 -15.816406 19.019531 -15.816406 18.113281 -15.816406 Z M 9.753906 -6.617188 L 9.753906 -9.195312 L 19.855469 -9.195312 C 20.761719 -9.195312 21.878906 -9.195312 21.878906 -7.90625 C 21.878906 -6.617188 20.761719 -6.617188 19.855469 -6.617188 Z M 9.753906 -6.617188 "/></g></g></g><g fill="#000000" fill-opacity="1"><g transform="translate(80.80227, 198.928995)"><g><path d="M 0.695312 0 L 25.777344 0 L 25.777344 -7.664062 L 9.753906 -7.664062 L 9.753906 -24.386719 L 0.695312 -24.386719 Z M 0.695312 0 "/></g></g></g><g fill="#000000" fill-opacity="1"><g transform="translate(106.927671, 198.928995)"><g><path d="M 0.347656 0 L 10.3125 0 L 11.984375 -4.390625 L 22.363281 -4.390625 L 24.035156 0 L 34 0 L 23.898438 -24.386719 L 10.449219 -24.386719 Z M 14.351562 -10.660156 L 17.175781 -18.113281 L 19.996094 -10.660156 Z M 14.351562 -10.660156 "/></g></g></g><g fill="#000000" fill-opacity="1"><g transform="translate(141.273865, 198.928995)"><g><path d="M 15.675781 0.347656 C 25.464844 0.347656 30.515625 -3.101562 30.898438 -10.832031 L 21.632812 -10.832031 C 21.285156 -8.5 19.507812 -7.316406 15.675781 -7.316406 C 10.347656 -7.316406 9.40625 -9.613281 9.40625 -12.226562 C 9.40625 -14.804688 10.3125 -17.070312 15.675781 -17.070312 C 19.507812 -17.070312 21.285156 -15.921875 21.632812 -13.621094 L 30.898438 -13.621094 C 30.515625 -21.320312 25.429688 -24.734375 15.675781 -24.734375 C 4.945312 -24.734375 0.347656 -20.691406 0.347656 -12.226562 C 0.347656 -3.726562 4.945312 0.347656 15.675781 0.347656 Z M 15.675781 0.347656 "/></g></g></g><g fill="#000000" fill-opacity="1"><g transform="translate(172.519848, 198.928995)"><g><path d="M 0.695312 0 L 9.753906 0 L 9.753906 -4.632812 L 13.515625 -7.734375 L 21.320312 0 L 33.859375 0 L 19.820312 -12.890625 L 33.859375 -24.386719 L 20.972656 -24.386719 L 9.753906 -14.839844 L 9.753906 -24.386719 L 0.695312 -24.386719 Z M 0.695312 0 "/></g></g></g><g fill="#000000" fill-opacity="1"><g transform="translate(206.726718, 198.928995)"><g><path d="M 10.800781 0 L 19.855469 0 L 19.855469 -16.722656 L 30.308594 -16.722656 L 30.308594 -24.386719 L 0.347656 -24.386719 L 0.347656 -16.722656 L 10.800781 -16.722656 Z M 10.800781 0 "/></g></g></g><g fill="#000000" fill-opacity="1"><g transform="translate(237.380538, 198.928995)"><g><path d="M 0.695312 0 L 9.753906 0 L 9.753906 -24.386719 L 0.695312 -24.386719 Z M 0.695312 0 "/></g></g></g><g fill="#000000" fill-opacity="1"><g transform="translate(247.830698, 198.928995)"><g><path d="M 15.675781 0.347656 C 25.464844 0.347656 30.515625 -3.101562 30.898438 -10.832031 L 21.632812 -10.832031 C 21.285156 -8.5 19.507812 -7.316406 15.675781 -7.316406 C 10.347656 -7.316406 9.40625 -9.613281 9.40625 -12.226562 C 9.40625 -14.804688 10.3125 -17.070312 15.675781 -17.070312 C 19.507812 -17.070312 21.285156 -15.921875 21.632812 -13.621094 L 30.898438 -13.621094 C 30.515625 -21.320312 25.429688 -24.734375 15.675781 -24.734375 C 4.945312 -24.734375 0.347656 -20.691406 0.347656 -12.226562 C 0.347656 -3.726562 4.945312 0.347656 15.675781 0.347656 Z M 15.675781 0.347656 "/></g></g></g><g fill="#000000" fill-opacity="1"><g transform="translate(279.076672, 198.928995)"><g><path d="M 0.695312 0 L 25.777344 0 L 25.777344 -7.664062 L 9.753906 -7.664062 L 9.753906 -24.386719 L 0.695312 -24.386719 Z M 0.695312 0 "/></g></g></g><g fill="#000000" fill-opacity="1"><g transform="translate(305.202073, 198.928995)"><g><path d="M 0.695312 0 L 26.476562 0 L 26.476562 -6.96875 L 9.753906 -6.96875 L 9.753906 -9.230469 L 26.476562 -9.230469 L 26.476562 -15.152344 L 9.753906 -15.152344 L 9.753906 -17.417969 L 26.476562 -17.417969 L 26.476562 -24.386719 L 0.695312 -24.386719 Z M 0.695312 0 "/></g></g></g><g fill="#000000" fill-opacity="1"><g transform="translate(332.024153, 198.928995)"><g><path d="M 15.921875 0.347656 C 25.917969 0.347656 31.492188 -1.359375 31.492188 -8.082031 C 31.492188 -14.457031 25.535156 -15.117188 15.921875 -15.503906 C 10.625 -15.710938 9.753906 -15.675781 9.753906 -16.617188 C 9.753906 -17.558594 10.625 -17.765625 14.875 -17.765625 C 19.300781 -17.765625 21.390625 -17.488281 21.390625 -16.199219 L 30.445312 -16.199219 C 30.445312 -22.433594 25.082031 -24.734375 15.570312 -24.734375 C 5.957031 -24.734375 0.695312 -22.433594 0.695312 -17.070312 C 0.695312 -11.390625 4.910156 -9.578125 15.921875 -9.230469 C 21.632812 -9.058594 22.433594 -8.917969 22.433594 -7.871094 C 22.433594 -6.96875 21.632812 -6.617188 16.269531 -6.617188 C 10.519531 -6.617188 9.40625 -7.421875 9.40625 -8.605469 L 0.347656 -8.605469 C 0.347656 -1.359375 5.921875 0.347656 15.921875 0.347656 Z M 15.921875 0.347656 "/></g></g></g></svg>